<?xml version="1.0" encoding="UTF-8"?>
<svg height="16px" viewBox="0 0 16 16" width="16px" xmlns="http://www.w3.org/2000/svg" xmlns:xlink="http://www.w3.org/1999/xlink">
    <filter id="a" height="100%" width="100%" x="0%" y="0%">
        <feColorMatrix in="SourceGraphic" type="matrix" values="0 0 0 0 1 0 0 0 0 1 0 0 0 0 1 0 0 0 1 0"/>
    </filter>
    <mask id="b">
        <g filter="url(#a)">
            <rect fill-opacity="0.1" height="16" width="16"/>
        </g>
    </mask>
    <clipPath id="c">
        <rect height="152" width="192"/>
    </clipPath>
    <mask id="d">
        <g filter="url(#a)">
            <rect fill-opacity="0.1" height="16" width="16"/>
        </g>
    </mask>
    <clipPath id="e">
        <rect height="152" width="192"/>
    </clipPath>
    <mask id="f">
        <g filter="url(#a)">
            <rect fill-opacity="0.1" height="16" width="16"/>
        </g>
    </mask>
    <clipPath id="g">
        <rect height="152" width="192"/>
    </clipPath>
    <g clip-path="url(#c)" mask="url(#b)" transform="matrix(1 0 0 1 -168 -16)">
        <path d="m 62.292969 96.035156 h -23.34375 v 2 h 23.34375 z m 0 0" fill-rule="evenodd"/>
    </g>
    <g clip-path="url(#e)" mask="url(#d)" transform="matrix(1 0 0 1 -168 -16)">
        <path d="m 103.023438 120.035156 h -23.339844 v 2 h 23.339844 z m 0 0" fill-rule="evenodd"/>
    </g>
    <g clip-path="url(#g)" mask="url(#f)" transform="matrix(1 0 0 1 -168 -16)">
        <path d="m 103.023438 72.035156 h -23.339844 v 2 h 23.339844 z m 0 0" fill-rule="evenodd"/>
    </g>
    <g fill="#241f31">
        <path d="m 0.0742188 7.539062 l 2.4179692 -3.539062 h 3.40625 s 2.347656 3.519531 2.324218 3.570312 c -0.023437 0.054688 -2.308594 3.429688 -2.308594 3.429688 h -3.425781 z m 0 0"/>
        <path d="m 6.925781 3.597656 c -0.050781 -0.152344 2.230469 -3.597656 2.230469 -3.597656 h 3.664062 s 2.242188 3.3125 2.253907 3.417969 c 0.007812 0.105469 -2.261719 3.601562 -2.261719 3.601562 l -3.585938 0.019531 s -2.25 -3.300781 -2.300781 -3.441406 z m 0 0"/>
        <path d="m 6.722656 11.441406 l 2.457032 -3.457031 h 3.542968 s 2.410156 3.484375 2.34375 3.601563 c -0.0625 0.109374 -2.359375 3.375 -2.359375 3.375 l -3.507812 -0.003907 z m 0 0"/>
    </g>
</svg>
