<?xml version="1.0" encoding="UTF-8"?>
<svg height="128px" viewBox="0 0 128 128" width="128px" xmlns="http://www.w3.org/2000/svg" xmlns:xlink="http://www.w3.org/1999/xlink">
    <filter id="a" height="100%" width="100%" x="0%" y="0%">
        <feColorMatrix in="SourceGraphic" type="matrix" values="0 0 0 0 1 0 0 0 0 1 0 0 0 0 1 0 0 0 1 0"/>
    </filter>
    <mask id="b">
        <g filter="url(#a)">
            <rect fill-opacity="0.1" height="128" width="128"/>
        </g>
    </mask>
    <clipPath id="c">
        <rect height="152" width="192"/>
    </clipPath>
    <mask id="d">
        <g filter="url(#a)">
            <rect fill-opacity="0.1" height="128" width="128"/>
        </g>
    </mask>
    <clipPath id="e">
        <rect height="152" width="192"/>
    </clipPath>
    <mask id="f">
        <g filter="url(#a)">
            <rect fill-opacity="0.1" height="128" width="128"/>
        </g>
    </mask>
    <clipPath id="g">
        <rect height="152" width="192"/>
    </clipPath>
    <path d="m 67.042969 12 l -13.980469 24 h -26.75 l -13.980469 24 h -2.332031 v 4 l 16.3125 28 h 26.75 l 13.980469 24 h 32.621093 l 1.160157 -1.992188 l 15.148437 -26.007812 h 0.027344 v -4 h -2.355469 l -11.652343 -20 l 13.980468 -24 h 0.027344 v -4 h -2.355469 l -13.980469 -24 z m 0 0" fill="#1f8254"/>
    <path d="m 67.042969 8 l -13.980469 24 h -26.75 l -16.3125 28 l 16.3125 28 h 26.75 l 13.980469 24 h 32.621093 l 1.160157 -1.992188 l 15.148437 -26.007812 l -13.980468 -24 l 13.980468 -24 l -16.308594 -28 z m 0 0" fill="#26a269"/>
    <path d="m 30.949219 41.964844 h 23.34375 l 11.667969 20.035156 l -11.667969 20.035156 h -23.34375 l -11.667969 -20.035156 z m 0 0" fill="#2ec27e"/>
    <path d="m 19.28125 62 h 46.71875 v -2 h -46.71875 z m 0 0" fill="#2ec27e"/>
    <path d="m 30.949219 39.964844 h 23.34375 l 11.667969 20.035156 l -11.667969 20.035156 h -23.34375 l -11.667969 -20.035156 z m 0 0" fill="#57e389"/>
    <path d="m 95.023438 17.964844 h -23.339844 l -11.671875 20.035156 l 11.671875 20.035156 h 23.339844 l 11.671874 -20.035156 z m 0 0" fill="#2ec27e"/>
    <path d="m 106.714844 38 h -46.722656 v -2 h 46.722656 z m 0 0" fill="#2ec27e"/>
    <path d="m 95.023438 15.964844 h -23.339844 l -11.671875 20.035156 l 11.671875 20.035156 h 23.339844 l 11.671874 -20.035156 z m 0 0" fill="#57e389"/>
    <path d="m 95.023438 65.964844 h -23.339844 l -11.671875 20.035156 l 11.671875 20.035156 h 23.339844 l 11.671874 -20.035156 z m 0 0" fill="#2ec27e"/>
    <path d="m 106.714844 86 h -46.722656 v -2 h 46.722656 z m 0 0" fill="#2ec27e"/>
    <path d="m 95.023438 63.964844 h -23.339844 l -11.671875 20.035156 l 11.671875 20.035156 h 23.339844 l 11.671874 -20.035156 z m 0 0" fill="#57e389"/>
    <path d="m 53.0625 88 h -26.75 v 4 h 26.75 z m 0 0" fill="#196c46" fill-rule="evenodd"/>
    <path d="m 99.664062 112 h -32.621093 v 4 h 32.621093 z m 0 0" fill="#196c46" fill-rule="evenodd"/>
    <g clip-path="url(#c)" mask="url(#b)" transform="matrix(1 0 0 1 -8 -16)">
        <path d="m 62.292969 96.035156 h -23.34375 v 2 h 23.34375 z m 0 0" fill-rule="evenodd"/>
    </g>
    <g clip-path="url(#e)" mask="url(#d)" transform="matrix(1 0 0 1 -8 -16)">
        <path d="m 103.023438 120.035156 h -23.339844 v 2 h 23.339844 z m 0 0" fill-rule="evenodd"/>
    </g>
    <g clip-path="url(#g)" mask="url(#f)" transform="matrix(1 0 0 1 -8 -16)">
        <path d="m 103.023438 72.035156 h -23.339844 v 2 h 23.339844 z m 0 0" fill-rule="evenodd"/>
    </g>
</svg>
